<?xml version="1.0" encoding="utf-8"?>
<!-- Generator: Adobe Illustrator 24.1.1, SVG Export Plug-In . SVG Version: 6.00 Build 0)  -->
<svg version="1.1" id="Layer_1" xmlns="http://www.w3.org/2000/svg" xmlns:xlink="http://www.w3.org/1999/xlink" x="0px" y="0px"
	 viewBox="0 0 200 200" style="enable-background:new 0 0 200 200;" xml:space="preserve">
<style type="text/css">
	.st0{fill:#333333;}
</style>
<path class="st0" d="M75,71.1v-10c0-14.3,11.2-25.9,25-25.9s25,11.7,25,25.9v10h17.3c1.6,0,3,1.3,3.1,2.9l5.9,87.5
	c0.1,1.7-1.2,3.2-2.9,3.3H51.8c-1.7,0-3.1-1.4-3.1-3.1v-0.2L54.6,74c0.1-1.6,1.5-2.9,3.1-2.9L75,71.1z M84.4,71.1h31.3v-10
	c0-9.2-7-16.6-15.6-16.6s-15.6,7.4-15.6,16.6V71.1z M58.5,155.5h83.1l-5.1-75H63.6L58.5,155.5z"/>
</svg>
