<svg xmlns="http://www.w3.org/2000/svg" width="16" height="16"><path fill-rule="evenodd" d="M5.043 3v.004a.998.998 0 0 0-.1 0A.998.998 0 0 0 4.21 4.61l2.543 3.391-2.543 3.396a.999.999 0 1 0 1.6 1.198L8 9.672l2.191 2.924a.999.999 0 1 0 1.598-1.198L9.248 8.002l2.541-3.39a.998.998 0 0 0-.865-1.608.998.998 0 0 0-.733.41L8 6.338 5.809 3.414A.998.998 0 0 0 5.043 3z" color="#000" font-family="sans-serif" font-weight="400" overflow="visible" style="line-height:normal;text-indent:0;text-align:start;text-decoration-line:none;text-decoration-style:solid;text-decoration-color:#000;text-transform:none;block-progression:tb;white-space:normal;isolation:auto;mix-blend-mode:normal;solid-color:#000;solid-opacity:1"/></svg>